<svg width="176" height="18" viewBox="0 0 176 18" fill="none" xmlns="http://www.w3.org/2000/svg">
<g clip-path="url(#clip0_518_7379)">
<path fill-rule="evenodd" clip-rule="evenodd" d="M128.291 12.3057H123.557V9.75979H130.71V17.4767H128.291V15.8401C128.086 16.1306 127.743 16.404 127.299 16.6481C125.345 17.8428 122.706 17.7087 122.706 17.7087C116.056 17.6726 112.823 10.2532 115.759 4.74702C119.092 -1.47082 129.281 -0.790069 131.04 6.32168L128.416 7.15714C127.621 2.13405 120.352 1.69569 118.171 5.93317C116.71 8.74383 117.37 12.7578 120.22 14.427C122.383 15.8728 126.39 15.1061 128.291 13.0088V12.3057ZM53.6752 15.4292L49.0234 0.755323H44.1327V17.456H46.7559V2.21309L51.6467 17.456H55.7019L60.5926 2.21309V17.456H63.2211V0.755323H58.3252L53.6752 15.4292ZM91.964 3.26171H98.0477V17.456H100.671V3.26171H106.76V0.755323H91.964V3.26171ZM109.144 0.755323H111.767V17.456H109.144V0.755323ZM139.003 0.755323L132.121 17.4629H135.08L136.677 13.4024H144.932L146.529 17.4629H149.487L142.616 0.755323H139.003ZM137.619 11.0164L140.813 2.9265L144.007 11.0164H137.619ZM153.677 3.26171H147.593V0.755323H162.384V3.26171H156.3V17.456H153.677V3.26171ZM167.396 14.9547V10.0589H175.05V7.55764H167.396V3.26171H175.763V0.755323H164.771V17.456H176V14.9547H167.396ZM75.5626 13.4454C76.245 12.8403 76.6817 12.0066 76.79 11.1023V0.755323H79.4511V11.1023C79.4511 12.7887 78.7807 14.4064 77.5876 15.5994C76.3946 16.7924 74.777 17.4629 73.0906 17.4629C71.4042 17.4629 69.7865 16.7924 68.5935 15.5994C67.4005 14.4064 66.7301 12.7887 66.7301 11.1023V0.755323H69.3912V11.1023C69.5012 12.0066 69.9378 12.8403 70.6186 13.4454C71.2993 14.0505 72.1795 14.384 73.0906 14.384C74.0017 14.384 74.8801 14.0505 75.5626 13.4454ZM85.5516 0.755323H82.8905V17.456H94.281V14.7949H85.5516V0.755323Z" fill="#137BF5"/>
<path d="M14.1132 14.9743L25.891 3.01975C29.075 -0.190767 34.2744 -0.190767 37.4566 3.01975L25.6788 14.9743C22.3905 18.1848 17.2972 18.1848 14.1132 14.9743ZM0 14.863L11.7778 2.90838C14.9618 -0.302141 20.1612 -0.302141 23.3434 2.90838L11.5656 14.863C8.38341 18.0735 3.184 18.0735 0 14.863Z" fill="url(#paint0_linear_518_7379)"/>
<path d="M36.1854 16.6344C34.8064 18.0735 32.5771 18.0735 31.1981 16.6344C29.8191 15.1954 29.8191 12.9819 31.1981 11.5429C32.5771 10.1038 34.8064 10.1038 36.1854 11.5429C37.5643 12.9819 37.5643 15.1954 36.1854 16.6344Z" fill="url(#paint1_linear_518_7379)"/>
</g>
<defs>
<linearGradient id="paint0_linear_518_7379" x1="28.1724" y1="15.48" x2="-2.17379" y2="18.485" gradientUnits="userSpaceOnUse">
<stop stop-color="#137BF5"/>
<stop offset="1" stop-color="#16C88A"/>
</linearGradient>
<linearGradient id="paint1_linear_518_7379" x1="28.1724" y1="15.48" x2="-2.17379" y2="18.485" gradientUnits="userSpaceOnUse">
<stop stop-color="#137BF5"/>
<stop offset="1" stop-color="#16C88A"/>
</linearGradient>
<clipPath id="clip0_518_7379">
<rect width="176" height="18" fill="white"/>
</clipPath>
</defs>
</svg>
