<svg width="52" height="36" viewBox="0 0 52 36" fill="none" xmlns="http://www.w3.org/2000/svg">
<path d="M41.8625 12.5326C42.9763 9.73142 44.7312 6.96388 47.0769 4.2976C47.8194 3.45385 47.9206 2.2389 47.3131 1.2939C46.8406 0.551399 46.0644 0.146416 45.2206 0.146416C44.9844 0.146416 44.7481 0.163204 44.5118 0.247665C39.5507 1.6989 27.9575 6.84574 27.6368 23.3495C27.5188 29.7114 32.1762 35.1788 38.2344 35.8032C41.5925 36.1407 44.9337 35.0439 47.4144 32.8164C49.8949 30.572 51.3125 27.3657 51.3125 24.0245C51.3125 18.4558 47.3637 13.5788 41.8625 12.5326Z" fill="#6CC24A"/>
<path d="M11.298 35.8032C14.6394 36.1407 17.9806 35.0439 20.4612 32.8164C22.9418 30.572 24.3594 27.3657 24.3594 24.0245C24.3594 18.4558 20.4106 13.5789 14.9093 12.5326C16.0231 9.73142 17.7781 6.96389 20.1237 4.29762C20.8662 3.45387 20.9675 2.23892 20.3599 1.29392C19.8874 0.551418 19.1112 0.146435 18.2674 0.146435C18.0312 0.146435 17.795 0.163223 17.5587 0.247684C12.5975 1.69892 1.00433 6.84576 0.683701 23.3496V23.5857C0.683701 29.8464 5.29054 35.1788 11.298 35.8032Z" fill="#6CC24A"/>
</svg>
