<svg width="52" height="36" viewBox="0 0 52 36" fill="none" xmlns="http://www.w3.org/2000/svg">
<path d="M10.1375 12.5326C9.02375 9.73142 7.26878 6.96388 4.92314 4.2976C4.18064 3.45385 4.07939 2.2389 4.68687 1.2939C5.15943 0.551399 5.93561 0.146416 6.77936 0.146416C7.01562 0.146416 7.25191 0.163204 7.48817 0.247665C12.4493 1.6989 24.0425 6.84574 24.3632 23.3495C24.4812 29.7114 19.8238 35.1788 13.7656 35.8032C10.4075 36.1407 7.0663 35.0439 4.58562 32.8164C2.10505 30.572 0.6875 27.3657 0.6875 24.0245C0.6875 18.4558 4.6363 13.5788 10.1375 12.5326Z" fill="#6CC24A"/>
<path d="M40.702 35.8032C37.3606 36.1407 34.0194 35.0439 31.5388 32.8164C29.0582 30.572 27.6406 27.3657 27.6406 24.0245C27.6406 18.4558 31.5894 13.5789 37.0907 12.5326C35.9769 9.73142 34.2219 6.96389 31.8763 4.29762C31.1338 3.45387 31.0325 2.23892 31.6401 1.29392C32.1126 0.551418 32.8888 0.146435 33.7326 0.146435C33.9688 0.146435 34.205 0.163223 34.4413 0.247684C39.4025 1.69892 50.9957 6.84576 51.3163 23.3496V23.5857C51.3163 29.8464 46.7095 35.1788 40.702 35.8032Z" fill="#6CC24A"/>
</svg>
